<svg xmlns="http://www.w3.org/2000/svg" viewBox="0 0 1440 1024" width="1440" height="1024">
  <defs>
    <linearGradient id="heroGradient" x1="0%" y1="0%" x2="100%" y2="100%">
      <stop offset="0%" stop-color="#F8FAFC" />
      <stop offset="50%" stop-color="#EFF6FF" />
      <stop offset="100%" stop-color="#DBEAFE" />
    </linearGradient>
    
    <filter id="shadow" x="-10%" y="-10%" width="120%" height="120%">
      <feDropShadow dx="0" dy="8" stdDeviation="12" flood-color="#2563EB" flood-opacity="0.15"/>
    </filter>
  </defs>

  <g id="Background_Page">
    <rect width="1440" height="1024" fill="url(#heroGradient)" />
    <circle cx="150" cy="350" r="300" fill="#BFDBFE" opacity="0.4" />
    <circle cx="1300" cy="650" r="400" fill="#93C5FD" opacity="0.3" />
    <circle cx="850" cy="200" r="150" fill="#DBEAFE" opacity="0.6" />
  </g>

  <g id="Header">
    <rect width="1440" height="80" fill="none" />
    
    <g id="Logo_Header" style="cursor: pointer;">
      <circle cx="146" cy="40" r="16" fill="#2563EB" />
      <circle cx="162" cy="40" r="16" fill="#60A5FA" opacity="0.8" />
      <text x="190" y="48" font-family="Arial, sans-serif" font-size="26" font-weight="bold" fill="#0F172A">Fashon Shop</text>
    </g>

    <g id="Search_Bar">
      <rect x="400" y="16" width="640" height="48" rx="24" fill="#FFFFFF" filter="url(#shadow)" />
      
      <circle cx="430" cy="40" r="7" stroke="#64748B" stroke-width="2" fill="none" />
      <path d="M435 45 L441 51" stroke="#64748B" stroke-width="2" stroke-linecap="round" />
      
      <text x="460" y="46" font-family="Arial, sans-serif" font-size="15" fill="#94A3B8">Tìm kiếm quần áo...</text>
      
      <rect x="930" y="20" width="100" height="40" rx="20" fill="#2563EB" style="cursor: pointer;" />
      <text x="980" y="45" font-family="Arial, sans-serif" font-size="15" font-weight="bold" fill="#FFFFFF" text-anchor="middle">Tìm kiếm</text>
    </g>

    <g id="User_Profile" style="cursor: pointer;">
      <circle cx="1190" cy="40" r="18" fill="#F8FAFC" stroke="#CBD5E1" stroke-width="1.5" />
      <circle cx="1190" cy="35" r="6" stroke="#94A3B8" stroke-width="1.5" fill="none" />
      <path d="M1178 48 C1178 41 1202 41 1202 48" stroke="#94A3B8" stroke-width="1.5" fill="none" />
      
      <text x="1220" y="46" font-family="Arial, sans-serif" font-size="18" font-weight="600" fill="#0F172A">nvbangg</text>
      
      <path d="M1305 44 L1312 37 L1319 44" stroke="#0F172A" stroke-width="2" fill="none" stroke-linecap="round" stroke-linejoin="round" />
    </g>
  </g>

  <g id="Search_Page_Content">
    <g id="Product_Row_1">
      <g id="Card_1">
        <rect x="130" y="140" width="280" height="360" rx="12" fill="#FCE7F3" />
        <text x="130" y="530" font-family="Arial, sans-serif" font-size="20" font-weight="bold" fill="#0F172A">399.000đ</text>
        <text x="130" y="560" font-family="Arial, sans-serif" font-size="15" fill="#475569">Áo Sơ-mi Ngắn Tay asymmetrical...</text>
      </g>
      
      <g id="Card_2">
        <rect x="430" y="140" width="280" height="360" rx="12" fill="#FFE4E6" />
        <text x="430" y="530" font-family="Arial, sans-serif" font-size="20" font-weight="bold" fill="#0F172A">449.000đ</text>
        <text x="430" y="560" font-family="Arial, sans-serif" font-size="15" fill="#475569">Áo Sơ-mi Ngắn Tay Raglan collection</text>
      </g>

      <g id="Card_3">
        <rect x="730" y="140" width="280" height="360" rx="12" fill="#FBCFE8" />
        <text x="730" y="530" font-family="Arial, sans-serif" font-size="20" font-weight="bold" fill="#0F172A">349.000đ</text>
        <text x="730" y="560" font-family="Arial, sans-serif" font-size="15" fill="#475569">Áo Không Tay Thêu Hoa Collection</text>
      </g>

      <g id="Card_4">
        <rect x="1030" y="140" width="280" height="360" rx="12" fill="#FCE7F3" />
        <text x="1030" y="530" font-family="Arial, sans-serif" font-size="20" font-weight="bold" fill="#0F172A">399.000đ</text>
        <text x="1030" y="560" font-family="Arial, sans-serif" font-size="15" fill="#475569">Áo Sơ-mi Ngắn Tay Relax Fit Collection</text>
      </g>
    </g>
  </g>

  <g id="Pagination">
    <circle cx="525" cy="620" r="18" fill="#FFFFFF" />
    <path d="M528 614 L522 620 L528 626" stroke="#64748B" stroke-width="2" fill="none" stroke-linecap="round" stroke-linejoin="round"/>
    <circle cx="575" cy="620" r="18" fill="#2563EB" />
    <text x="575" y="625" font-family="Arial, sans-serif" font-size="14" font-weight="bold" fill="#FFFFFF" text-anchor="middle">1</text>
    <circle cx="625" cy="620" r="18" fill="#FFFFFF" />
    <text x="625" y="625" font-family="Arial, sans-serif" font-size="14" font-weight="bold" fill="#475569" text-anchor="middle">2</text>
    <circle cx="675" cy="620" r="18" fill="#FFFFFF" />
    <text x="675" y="625" font-family="Arial, sans-serif" font-size="14" font-weight="bold" fill="#475569" text-anchor="middle">3</text>
    <text x="725" y="625" font-family="Arial, sans-serif" font-size="14" font-weight="bold" fill="#94A3B8" text-anchor="middle">...</text>
    <circle cx="775" cy="620" r="18" fill="#FFFFFF" />
    <text x="775" y="625" font-family="Arial, sans-serif" font-size="14" font-weight="bold" fill="#475569" text-anchor="middle">10</text>
    <circle cx="825" cy="620" r="18" fill="#FFFFFF" />
    <path d="M822 614 L828 620 L822 626" stroke="#64748B" stroke-width="2" fill="none" stroke-linecap="round" stroke-linejoin="round"/>
  </g>

  <g id="Why_Choose_Us">
    <rect x="250" y="670" width="940" height="170" rx="20" fill="#FFFFFF" fill-opacity="0.6" />
    <text x="720" y="705" font-family="Arial, sans-serif" font-size="18" font-weight="bold" fill="#0F172A" text-anchor="middle">Tại sao chọn Fashon Shop?</text>
    
    <text x="720" y="730" font-family="Arial, sans-serif" font-size="13" fill="#475569" text-anchor="middle">Fashon Shop cam kết mang đến những bộ sưu tập thời trang cao cấp từ các thương hiệu nổi tiếng.</text>
    <text x="720" y="750" font-family="Arial, sans-serif" font-size="13" fill="#475569" text-anchor="middle">Mỗi sản phẩm được lựa chọn kỹ lưỡng, đảm bảo cả về chất liệu, thiết kế, mang lại cho bạn sự sang trọng.</text>
    <text x="720" y="770" font-family="Arial, sans-serif" font-size="13" fill="#475569" text-anchor="middle">Hãy cùng khám phá và định hình phong cách cá nhân đẳng cấp nhất của riêng bạn tại Fashon Shop.</text>

    <g id="Feature_1">
       <circle cx="390" cy="805" r="18" fill="#DBEAFE" />
       <path d="M382 799 h8 v9 h-8 z M390 802 h4 l2 3 v4 h-6 z" stroke="#2563EB" stroke-width="1.5" fill="none"/>
       <circle cx="385" cy="809" r="1.5" fill="#2563EB"/>
       <circle cx="393" cy="809" r="1.5" fill="#2563EB"/>
       
       <text x="420" y="800" font-family="Arial, sans-serif" font-size="14" font-weight="bold" fill="#0F172A">Giao hàng toàn quốc</text>
       <text x="420" y="818" font-family="Arial, sans-serif" font-size="12" fill="#64748B">Miễn phí cho đơn từ 500k</text>
    </g>

    <g id="Feature_2">
       <circle cx="650" cy="805" r="18" fill="#DBEAFE" />
       <path d="M642 798 L650 795 L658 798 V804 C658 809 650 813 650 813 C650 813 642 809 642 804 Z" stroke="#2563EB" stroke-width="1.5" fill="none"/>
       <path d="M647 805 L649 807 L654 801" stroke="#2563EB" stroke-width="1.5" fill="none"/>

       <text x="680" y="800" font-family="Arial, sans-serif" font-size="14" font-weight="bold" fill="#0F172A">Chất lượng đảm bảo</text>
       <text x="680" y="818" font-family="Arial, sans-serif" font-size="12" fill="#64748B">Sản phẩm giống 100% mô tả</text>
    </g>

    <g id="Feature_3">
       <circle cx="910" cy="805" r="18" fill="#DBEAFE" />
       <path d="M905 803 A 5 5 0 1 1 908 809" stroke="#2563EB" stroke-width="1.5" fill="none" />
       <path d="M904 800 V804 H908" stroke="#2563EB" stroke-width="1.5" fill="none" />
       
       <text x="940" y="800" font-family="Arial, sans-serif" font-size="14" font-weight="bold" fill="#0F172A">Đổi trả dễ dàng</text>
       <text x="940" y="818" font-family="Arial, sans-serif" font-size="12" fill="#64748B">Hỗ trợ đổi size trong 7 ngày</text>
    </g>
  </g>

  <g id="Footer">
    <rect x="0" y="874" width="1440" height="150" fill="#1E293B" />
    
    <text x="130" y="915" font-family="Arial, sans-serif" font-size="22" font-weight="bold" fill="#F8FAFC">Fashon Shop</text>
    <text x="130" y="945" font-family="Arial, sans-serif" font-size="13" fill="#94A3B8">© 2026 Bản quyền thuộc về Fashon Shop.</text>
    <text x="130" y="970" font-family="Arial, sans-serif" font-size="13" fill="#94A3B8">Phát triển bởi: Nguyễn Văn Bằng</text>

    <text x="550" y="915" font-family="Arial, sans-serif" font-size="16" font-weight="bold" fill="#F8FAFC">Thông tin liên hệ</text>
    
    <path d="M555 941 C 555 937 559 937 559 937 C 559 937 563 937 563 941 C 563 944 559 947 559 947 C 559 947 555 944 555 941 Z" fill="#EF4444" opacity="0.9"/>
    <circle cx="559" cy="940" r="1.5" fill="#FFFFFF"/>
    <text x="570" y="945" font-family="Arial, sans-serif" font-size="13" fill="#94A3B8">Địa chỉ: Học viện Công nghệ Bưu chính Viễn thông, Hà Nội</text>
    
    <path d="M553 964 L555 964 A 2 2 0 0 1 557 966 L557 967 A 1 1 0 0 1 556 968 L555 968 C 556 970 558 972 560 973 L560 972 A 1 1 0 0 1 561 971 L562 971 A 2 2 0 0 1 564 973 L564 975 A 1 1 0 0 1 563 976 L561 976 A 8 8 0 0 1 553 968 Z" fill="#94A3B8"/>
    <text x="570" y="970" font-family="Arial, sans-serif" font-size="13" fill="#94A3B8">Điện thoại: 0987.654.321</text>
    
    <rect x="552" y="988" width="14" height="10" rx="1.5" fill="#E2E8F0" />
    <path d="M552 990 L559 994 L566 990" stroke="#94A3B8" stroke-width="1.2" fill="none"/>
    <text x="570" y="995" font-family="Arial, sans-serif" font-size="13" fill="#94A3B8">Email: contact@fashonshop.vn</text>

    <text x="1050" y="915" font-family="Arial, sans-serif" font-size="16" font-weight="bold" fill="#F8FAFC">Kết nối với chúng tôi</text>
    
    <g id="Social_Icons" transform="translate(1050, 940)">
      <rect x="0" y="0" width="40" height="40" rx="12" stroke="#475569" stroke-width="1.5" fill="none" />
      <path d="M22 15 h-2 a 2 2 0 0 0 -2 2 v2 h4 l-1 3 h-3 v7 h-3 v-7 h-2 v-3 h2 v-2 a 5 5 0 0 1 5 -5 h2 z" fill="#F8FAFC"/>
      
      <rect x="55" y="0" width="40" height="40" rx="12" stroke="#475569" stroke-width="1.5" fill="none" />
      <text x="75" y="24" font-family="Arial, sans-serif" font-size="11" font-weight="bold" fill="#F8FAFC" text-anchor="middle">Zalo</text>
      
      <rect x="110" y="0" width="40" height="40" rx="12" stroke="#475569" stroke-width="1.5" fill="none" />
      <path d="M120 16 a 6 6 0 0 1 12 0 c 0 3.3 -2.7 6 -6 6 h-2 l-3 3 v-3 a 5.8 5.8 0 0 1 -1 -6 z" stroke="#F8FAFC" stroke-width="1.5" fill="none"/>
      <circle cx="124" cy="16" r="1.5" fill="#F8FAFC"/>
      <circle cx="128" cy="16" r="1.5" fill="#F8FAFC"/>
      
      <rect x="165" y="0" width="40" height="40" rx="12" stroke="#475569" stroke-width="1.5" fill="none" />
      <path d="M182 12 v10 a 3 3 0 1 1 -3 -3 v3 a 1 1 0 1 0 1 1 v-11 h3 a 4 4 0 0 0 4 4 v-3 a 2 2 0 0 1 -2 -2 z" fill="#F8FAFC"/>
    </g>
  </g>

  <g id="User_Dropdown_Menu">
    <rect x="1150" y="70" width="180" height="195" rx="12" fill="#FFFFFF" filter="url(#shadow)" stroke="#E2E8F0" stroke-width="1" />
    
    <g id="Menu_Item_Cart" style="cursor: pointer;">
      <rect x="1160" y="80" width="160" height="40" rx="8" fill="#F8FAFC" />
      <path d="M1174 96 V93 C1174 89 1186 89 1186 93 V96 M1171 96 H1189 L1187 108 H1173 Z" stroke="#0F172A" stroke-width="1.5" fill="none" stroke-linecap="round" stroke-linejoin="round"/>
      <text x="1200" y="105" font-family="Arial, sans-serif" font-size="16" fill="#0F172A">Giỏ hàng</text>
    </g>
    
    <g id="Menu_Item_Orders" style="cursor: pointer;">
      <rect x="1160" y="120" width="160" height="40" rx="8" fill="none" />
      <path d="M1172 136 L1180 132 L1188 136 L1188 144 L1180 148 L1172 144 Z M1172 136 L1180 140 L1188 136 M1180 148 V140" stroke="#475569" stroke-width="1.5" fill="none" stroke-linejoin="round"/>
      <text x="1200" y="145" font-family="Arial, sans-serif" font-size="16" fill="#475569">Đơn hàng</text>
    </g>
    
    <g id="Menu_Item_Admin" style="cursor: pointer;">
      <rect x="1160" y="160" width="160" height="40" rx="8" fill="none" />
      <rect x="1173" y="173" width="5" height="5" rx="1" stroke="#475569" stroke-width="1.5" fill="none"/>
      <rect x="1182" y="173" width="5" height="5" rx="1" stroke="#475569" stroke-width="1.5" fill="none"/>
      <rect x="1173" y="182" width="5" height="5" rx="1" stroke="#475569" stroke-width="1.5" fill="none"/>
      <rect x="1182" y="182" width="5" height="5" rx="1" stroke="#475569" stroke-width="1.5" fill="none"/>
      <text x="1200" y="185" font-family="Arial, sans-serif" font-size="16" fill="#475569">Trang Admin</text>
    </g>

    <path d="M1150 205 L1330 205" stroke="#E2E8F0" stroke-width="1" />
    
    <g id="Menu_Item_Logout" style="cursor: pointer;">
      <rect x="1160" y="210" width="160" height="40" rx="8" fill="none" />
      <path d="M1181 223 H1175 V237 H1181 M1184 226 L1188 230 L1184 234 M1178 230 H1188" stroke="#EF4444" stroke-width="1.5" fill="none" stroke-linecap="round" stroke-linejoin="round"/>
      <text x="1200" y="235" font-family="Arial, sans-serif" font-size="16" font-weight="bold" fill="#EF4444">Đăng xuất</text>
    </g>
  </g>
</svg>